<?xml version="1.0" encoding="UTF-8"?>
<svg width="170px" height="93px" viewBox="0 0 170 93" version="1.1" xmlns="http://www.w3.org/2000/svg" xmlns:xlink="http://www.w3.org/1999/xlink">
    <!-- Generator: Sketch 46.1 (44463) - http://www.bohemiancoding.com/sketch -->
    <title>ICO Pharma -v2</title>
    <desc>Created with Sketch.</desc>
    <defs></defs>
    <g id="Page-1" stroke="none" stroke-width="1" fill="none" fill-rule="evenodd" stroke-linecap="round" stroke-linejoin="round">
        <g id="Desktop-initial" transform="translate(-163.000000, -1055.000000)" stroke="#7358B7">
            <g id="Services--v2" transform="translate(-1.000000, 955.000000)">
                <g id="Service-1" transform="translate(52.000000, 15.000000)">
                    <g id="ICO-Pharma--v2" transform="translate(106.814815, 45.000000)">
                        <g id="Page-1" transform="translate(9.050000, 42.875000)">
                            <path d="M25.0397557,87.0049585 L13.5059293,87.0049585" id="Stroke-1" stroke-width="6"></path>
                            <path d="M109.168574,70.042943 C97.4726921,81.3511166 82.1423672,87.0056114 66.8137304,87.0047953 L37.9812745,87.0047953" id="Stroke-3" stroke-width="6"></path>
                            <path d="M91.0085162,52.4848756 L124.484044,20.1190337" id="Stroke-5" stroke-width="6"></path>
                            <path d="M100.088545,61.2639093 L150.547031,12.4780803" id="Stroke-7" stroke-width="6"></path>
                            <path d="M109.168574,70.042943 L162.67405,18.3111295" id="Stroke-9" stroke-width="6"></path>
                            <polyline id="Stroke-11" stroke-width="6" points="119.078634 7.7871101 133.98103 10.9697526 137.269415 25.3748821"></polyline>
                            <polyline id="Stroke-13" stroke-width="6" points="144.449338 0.815572539 159.351734 3.99903109 162.673881 18.3111295"></polyline>
                            <path d="M144.449338,0.815572539 L133.963811,10.953513" id="Stroke-15" stroke-width="6"></path>
                            <path d="M59.6454552,74.5894702 L66.8138992,74.5894702 L66.8155873,74.5894702 C78.8583707,74.5894702 90.9003101,70.1476438 100.088545,61.2639909" id="Stroke-17" stroke-width="6"></path>
                            <path d="M30.1048484,74.5894702 L46.140792,74.5894702" id="Stroke-19" stroke-width="6"></path>
                            <path d="M0.000422020725,74.5894702 L17.1631609,74.5894702" id="Stroke-21" stroke-width="6"></path>
                            <path d="M48.9548262,62.1747979 L66.8138992,62.1747979 L66.8147433,62.1747979 C75.5708293,62.1739819 84.3269153,58.9448238 91.0083474,52.4848756" id="Stroke-23" stroke-width="6"></path>
                            <path d="M25.0405997,62.1747979 L36.2942044,62.1747979" id="Stroke-25" stroke-width="6"></path>
                            <path d="M8.44159617,62.1747979 L13.5041568,62.1747979" id="Stroke-27" stroke-width="6"></path>
                            <path d="M62.182475,49.7593096 L66.8137304,49.7593096 L66.8145745,49.7593096 C72.2848071,49.7593096 77.7541957,47.7411878 81.9288247,43.7057604 L119.078465,7.78678368" id="Stroke-29" stroke-width="6"></path>
                            <path d="M40.2325018,49.7593096 L49.7980236,49.7593096" id="Stroke-31" stroke-width="6"></path>
                            <path d="M21.9471034,49.7593096 L28.1339273,49.7593096" id="Stroke-33" stroke-width="6"></path>
                        </g>
                    </g>
                </g>
            </g>
        </g>
    </g>
</svg>