<?xml version="1.0" encoding="UTF-8"?>
<svg width="131px" height="131px" viewBox="0 0 131 131" version="1.1" xmlns="http://www.w3.org/2000/svg" xmlns:xlink="http://www.w3.org/1999/xlink">
    <!-- Generator: Sketch 46.1 (44463) - http://www.bohemiancoding.com/sketch -->
    <title>ICO Process -v2</title>
    <desc>Created with Sketch.</desc>
    <defs></defs>
    <g id="Page-1" stroke="none" stroke-width="1" fill="none" fill-rule="evenodd" stroke-linecap="round" stroke-linejoin="round">
        <g id="Desktop-initial" transform="translate(-591.000000, -1036.000000)" stroke="#7358B7">
            <g id="Services--v2" transform="translate(-1.000000, 955.000000)">
                <g id="Service-2" transform="translate(443.000000, 15.000000)">
                    <g id="ICO-Process--v2" transform="translate(127.000000, 45.000000)">
                        <g transform="translate(87.000000, 87.062500) rotate(-315.000000) translate(-87.000000, -87.062500) translate(25.230000, 24.500000)">
                            <path d="M92.615067,24.602025 C103.382187,33.549775 110.243877,47.08165 110.243877,62.22615 C110.243877,89.168275 88.527807,111.00915 61.739637,111.00915 C34.952337,111.00915 13.236267,89.168275 13.236267,62.22615 C13.236267,44.8574 22.260777,29.60965 35.851917,20.965525" id="Stroke-1" stroke-width="6"></path>
                            <path d="M75.041328,15.30095 C78.086328,16.17245 81.008658,17.335325 83.777868,18.758075" id="Stroke-3" stroke-width="6"></path>
                            <path d="M61.739811,13.4432375 C63.000441,13.4432375 64.249761,13.4922375 65.486031,13.5867375" id="Stroke-5" stroke-width="6"></path>
                            <path d="M34.487757,39.7095125 C37.191717,36.4037625 40.478577,33.5976375 44.190867,31.4512625" id="Stroke-7" stroke-width="6"></path>
                            <path d="M77.388327,30.4297 C89.015007,36.2292 97.007697,48.28845 97.007697,62.226325 C97.007697,81.8167 81.217197,97.697075 61.739637,97.697075 C42.262077,97.697075 26.472447,81.8167 26.472447,62.226325 C26.472447,58.292325 27.109287,54.50795 28.284657,50.972075" id="Stroke-9" stroke-width="6"></path>
                            <path d="M83.522088,58.879975 C83.686518,59.9711 83.771778,61.088475 83.771778,62.225975 C83.771778,74.4646 73.907718,84.384475 61.739898,84.384475 C49.572078,84.384475 39.708018,74.4646 39.708018,62.225975 C39.708018,59.277225 40.280478,56.463225 41.320128,53.890725" id="Stroke-11" stroke-width="6"></path>
                            <path d="M75.046809,44.5647125 C76.843359,45.9358375 78.424149,47.5782125 79.730019,49.4314625" id="Stroke-13" stroke-width="6"></path>
                            <polyline id="Stroke-15" stroke-width="6" points="18.66933 39.78555 34.55466 39.620175 41.32326 53.898425"></polyline>
                            <polyline id="Stroke-17" stroke-width="6" points="33.460548 6.9601875 46.655838 15.8580625 44.209398 31.4838125"></polyline>
                            <path d="M85.771908,5.011125 C107.930808,14.4375 123.479448,36.505875 123.479448,62.2265 C123.479448,96.520375 95.837808,124.320875 61.739898,124.320875 C27.641988,124.320875 0.000348,96.520375 0.000348,62.2265 C0.000348,38.140375 13.634988,17.257625 33.564948,6.95975" id="Stroke-19" stroke-width="6"></path>
                            <path d="M71.320077,0.8745625 C72.570267,1.0705625 73.808277,1.3041875 75.032367,1.5745625" id="Stroke-21" stroke-width="6"></path>
                        </g>
                    </g>
                </g>
            </g>
        </g>
    </g>
</svg>