<?xml version="1.0" encoding="UTF-8"?>
<svg width="129px" height="129px" viewBox="0 0 129 129" version="1.1" xmlns="http://www.w3.org/2000/svg" xmlns:xlink="http://www.w3.org/1999/xlink">
    <!-- Generator: Sketch 45 (43475) - http://www.bohemiancoding.com/sketch -->
    <title>ICO Process -v2</title>
    <desc>Created with Sketch.</desc>
    <defs></defs>
    <g id="Page-1" stroke="none" stroke-width="1" fill="none" fill-rule="evenodd" stroke-linecap="round" stroke-linejoin="round">
        <g id="Desktop" transform="translate(-576.000000, -1490.000000)" stroke="#7358B7">
            <g id="Services--v2" transform="translate(0.000000, 1422.000000)">
                <g id="Service-2" transform="translate(427.000000, 0.000000)">
                    <g id="ICO-Process--v2" transform="translate(126.000000, 45.000000)">
                        <g transform="translate(87.000000, 87.500000) rotate(-315.000000) translate(-87.000000, -87.500000) translate(25.841584, 25.862069)">
                            <path d="M91.6980861,24.2384483 C102.358601,33.0539655 109.152353,46.3858621 109.152353,61.3065517 C109.152353,87.8505172 87.6512941,109.368621 61.1283535,109.368621 C34.6062743,109.368621 13.1052149,87.8505172 13.1052149,61.3065517 C13.1052149,44.1944828 22.0403733,29.172069 35.4969475,20.6556897" id="Stroke-1" stroke-width="6"></path>
                            <path d="M74.2983446,15.0748276 C77.313196,15.9334483 80.2065921,17.0791379 82.9483842,18.4808621" id="Stroke-3" stroke-width="6"></path>
                            <path d="M61.1285257,13.244569 C62.3766743,13.244569 63.6136248,13.2928448 64.8376545,13.3859483" id="Stroke-5" stroke-width="6"></path>
                            <path d="M34.1462941,39.1226724 C36.8234822,35.8657759 40.077799,33.1011207 43.7533337,30.9864655" id="Stroke-7" stroke-width="6"></path>
                            <path d="M76.6221059,29.98 C88.1336703,35.6937931 96.0472248,47.5748276 96.0472248,61.3067241 C96.0472248,80.6075862 80.4130663,96.2532759 61.1283535,96.2532759 C41.8436406,96.2532759 26.2103436,80.6075862 26.2103436,61.3067241 C26.2103436,57.4308621 26.8408782,53.7024138 28.0046109,50.2187931" id="Stroke-9" stroke-width="6"></path>
                            <path d="M82.6951366,58.0098276 C82.8579386,59.0848276 82.9423545,60.1856897 82.9423545,61.3063793 C82.9423545,73.3641379 73.1759584,83.1374138 61.1286119,83.1374138 C49.0812653,83.1374138 39.3148693,73.3641379 39.3148693,61.3063793 C39.3148693,58.4012069 39.8816614,55.6287931 40.9110178,53.0943103" id="Stroke-11" stroke-width="6"></path>
                            <path d="M74.3037713,43.9061207 C76.0825337,45.2569828 77.6476723,46.8750862 78.9406129,48.7009483" id="Stroke-13" stroke-width="6"></path>
                            <polyline id="Stroke-15" stroke-width="6" points="18.4844851 39.1975862 34.2125347 39.0346552 40.9141188 53.1018966"></polyline>
                            <polyline id="Stroke-17" stroke-width="6" points="33.1292554 6.85732759 46.193899 15.6237069 43.7716812 31.0185345"></polyline>
                            <path d="M84.9226812,4.93706897 C106.862186,14.2241379 122.256879,35.9663793 122.256879,61.3068966 C122.256879,95.0939655 94.8889188,122.483621 61.1286119,122.483621 C27.368305,122.483621 0.000344554455,95.0939655 0.000344554455,61.3068966 C0.000344554455,37.5767241 13.4999881,17.0025862 33.2326218,6.85689655" id="Stroke-19" stroke-width="6"></path>
                            <path d="M70.6139376,0.861637931 C71.8517495,1.05474138 73.077502,1.28491379 74.2894723,1.5512931" id="Stroke-21" stroke-width="6"></path>
                        </g>
                    </g>
                </g>
            </g>
        </g>
    </g>
</svg>