<?xml version="1.0" encoding="UTF-8"?>
<svg width="134px" height="112px" viewBox="0 0 134 112" version="1.1" xmlns="http://www.w3.org/2000/svg" xmlns:xlink="http://www.w3.org/1999/xlink">
    <!-- Generator: Sketch 46.1 (44463) - http://www.bohemiancoding.com/sketch -->
    <title>ICO Consulting</title>
    <desc>Created with Sketch.</desc>
    <defs></defs>
    <g id="Page-1" stroke="none" stroke-width="1" fill="none" fill-rule="evenodd" stroke-linecap="round" stroke-linejoin="round">
        <g id="Desktop-initial" transform="translate(-977.000000, -1040.000000)" stroke="#7358B7">
            <g id="Services--v2" transform="translate(-1.000000, 955.000000)">
                <g id="Service-3" transform="translate(835.000000, 15.000000)">
                    <g id="ICO-Consulting" transform="translate(123.000000, 39.000000)">
                        <g id="Page-1" transform="translate(23.490000, 33.250000)">
                            <g id="Group-5" transform="translate(0.000000, 78.701875)" stroke-width="6">
                                <polyline id="Stroke-1" points="20.323026 9.01005 23.703846 24.400425 38.962776 27.844425"></polyline>
                                <path d="M10.078428,0.487375 L0.000348,10.623375" id="Stroke-3"></path>
                            </g>
                            <path d="M38.505504,69.42495 L13.131084,94.9452" id="Stroke-6" stroke-width="6"></path>
                            <path d="M92.607759,15.0117625 L46.890129,60.9921375" id="Stroke-7" stroke-width="6"></path>
                            <path d="M21.458028,67.7441625 L18.076338,71.1452875" id="Stroke-8" stroke-width="6"></path>
                            <path d="M40.06872,49.0265125 L29.61219,59.5431375" id="Stroke-9" stroke-width="6"></path>
                            <g id="Group-18" transform="translate(0.870000, 0.826875)" stroke-width="6">
                                <path d="M86.920482,0.2037 L47.505132,39.845575" id="Stroke-10"></path>
                                <polyline id="Stroke-12" points="105.560058 19.038425 102.178368 3.647175 86.920308 0.20405"></polyline>
                                <path d="M5.186331,101.234613 L0.571851,105.875613" id="Stroke-14"></path>
                                <path d="M115.803786,27.5611 L125.882736,17.4251" id="Stroke-16"></path>
                            </g>
                            <path d="M88.24671,38.152275 L113.622,12.632025" id="Stroke-19" stroke-width="6"></path>
                            <path d="M34.145325,92.5654625 L79.862955,46.5850875" id="Stroke-20" stroke-width="6"></path>
                            <path d="M105.294099,39.8330625 L108.675789,36.4319375" id="Stroke-21" stroke-width="6"></path>
                            <path d="M86.683407,58.5507125 L97.139937,48.0340875" id="Stroke-22" stroke-width="6"></path>
                            <g id="Group-27" transform="translate(38.280000, 0.826875)" stroke-width="6">
                                <path d="M0.682602,105.719775 L40.097082,66.0779" id="Stroke-23"></path>
                                <path d="M82.415883,4.68895 L87.030363,0.04795" id="Stroke-25"></path>
                            </g>
                        </g>
                    </g>
                </g>
            </g>
        </g>
    </g>
</svg>