<?xml version="1.0" encoding="UTF-8"?>
<svg width="41px" height="38px" viewBox="0 0 41 38" version="1.1" xmlns="http://www.w3.org/2000/svg" xmlns:xlink="http://www.w3.org/1999/xlink">
    <!-- Generator: Sketch 46.1 (44463) - http://www.bohemiancoding.com/sketch -->
    <title>icon</title>
    <desc>Created with Sketch.</desc>
    <defs></defs>
    <g id="Page-1" stroke="none" stroke-width="1" fill="none" fill-rule="evenodd">
        <g id="Desktop-initial" transform="translate(-231.000000, -32.000000)" fill="#FFFFFF">
            <g id="Top-bar">
                <g id="apleca__logo" transform="translate(52.000000, 32.000000)">
                    <g id="icon" transform="translate(178.613861, 0.000000)">
                        <path d="M29.706698,16.4911238 C30.056302,16.8407277 30.6231832,16.8407277 30.9733317,16.4911238 L32.1326881,15.3312228 C32.4828366,14.9816188 32.4828366,14.4147376 32.1326881,14.0651337 C31.7830842,13.7149851 31.216203,13.7149851 30.866599,14.0651337 L29.706698,15.2244901 C29.3570941,15.5746386 29.3570941,16.1415198 29.706698,16.4911238" id="Fill-30"></path>
                        <path d="M39.4550396,23.7567327 C39.1054356,23.4071287 38.5385545,23.4071287 38.1884059,23.7567327 L34.9080099,27.0376733 C34.5578614,27.3872772 34.5578614,27.9541584 34.9080099,28.3037624 C35.2576139,28.6539109 35.824495,28.6539109 36.174099,28.3037624 L39.4550396,25.0233663 C39.8046436,24.6732178 39.8046436,24.1063366 39.4550396,23.7567327" id="Fill-31"></path>
                        <path d="M33.8058861,29.4058317 C33.4562822,29.0562277 32.889401,29.0562277 32.5392525,29.4058317 L30.6572723,31.2878119 C27.514104,34.4309802 23.3357376,36.1615743 18.8905396,36.1621188 C14.4458861,36.1621188 10.2675198,34.4309802 7.12489604,31.2883564 L7.12380693,31.2878119 C0.635985149,24.7994455 0.635985149,14.2421683 7.12435149,7.75380198 L12.9456386,1.93305941 L16.1606881,3.12236634 L17.349995,6.33741584 L14.9599455,8.7280099 L12.669005,7.88068317 L15.0808366,5.46885149 C15.4304406,5.11924752 15.4304406,4.55236634 15.0808366,4.20221782 C14.7306881,3.85261386 14.1638069,3.85261386 13.814203,4.20221782 L8.69321287,9.32320792 C3.07014356,14.9462772 3.07014356,24.0958812 8.69321287,29.7184059 C14.3162822,35.3414752 23.4653416,35.3414752 29.0884109,29.7184059 L33.4513812,25.3554356 C33.8015297,25.0058317 33.8015297,24.4384059 33.4513812,24.088802 C33.1017772,23.739198 32.534896,23.739198 32.1852921,24.088802 L27.8217772,28.4523168 C22.8973713,33.3767228 14.8842525,33.3767228 9.95984653,28.4523168 C5.03489604,23.5273663 5.03489604,15.5142475 9.95984653,10.5898416 L11.2749455,9.27419802 L14.489995,10.4640495 L15.6798465,13.679099 L14.364203,14.9947426 C11.8685099,17.4904356 11.8685099,21.5517228 14.364203,24.0474158 C16.8604406,26.5431089 20.9211832,26.5431089 23.4168762,24.0474158 L28.6048465,18.8594455 C28.9544505,18.5098416 28.9544505,17.9429604 28.6048465,17.5928119 C28.2552426,17.2432079 27.6883614,17.2432079 27.3382129,17.5928119 L22.1502426,22.7807822 C20.3532129,24.5783564 17.4284109,24.5783564 15.6308366,22.7807822 C13.8332624,20.9832079 13.8332624,18.0589505 15.6308366,16.2613762 L17.3521733,14.5400396 C17.3674208,14.5247921 17.3777673,14.5073663 17.3913812,14.4915743 C17.4137079,14.4665248 17.4360347,14.4414752 17.4550941,14.413703 C17.4719752,14.389198 17.4850446,14.363604 17.499203,14.3380099 C17.5128168,14.3129604 17.5275198,14.289 17.5389554,14.2628614 C17.5509356,14.2350891 17.559104,14.2067723 17.5683614,14.1779109 C17.5770743,14.1512277 17.5863317,14.1250891 17.5923218,14.0978614 C17.5983119,14.0700891 17.6010347,14.0417723 17.604302,14.0134554 C17.6081139,13.9840495 17.6119257,13.9551881 17.6130149,13.9257822 C17.6135594,13.8969208 17.6102921,13.8680594 17.6081139,13.839198 C17.6059356,13.8108812 17.6048465,13.7825644 17.5999455,13.753703 C17.5939554,13.7199406 17.5836089,13.6867228 17.5738069,13.653505 C17.5683614,13.6344455 17.5661832,13.6148416 17.559104,13.5957822 L16.2260347,9.99464356 L19.0223218,7.19835644 C19.0375693,7.18365347 19.0479158,7.16568317 19.0620743,7.14989109 C19.0838564,7.12484158 19.1067277,7.09979208 19.1252426,7.07256436 C19.1426683,7.04805941 19.1557376,7.02192079 19.169896,6.99632673 C19.1835099,6.97127723 19.1976683,6.94731683 19.209104,6.92172277 C19.2210842,6.89340594 19.229797,6.86454455 19.2390545,6.83568317 C19.2472228,6.80954455 19.2564802,6.7839505 19.2624703,6.75672277 C19.2684604,6.72840594 19.2711832,6.69954455 19.2744505,6.67068317 C19.2782624,6.64182178 19.2820743,6.6140495 19.2831634,6.58464356 C19.2837079,6.55523762 19.2804406,6.52583168 19.2782624,6.49642574 C19.2760842,6.46865347 19.274995,6.44088119 19.2700941,6.41256436 C19.264104,6.37825743 19.2537574,6.3450396 19.2439554,6.31127723 C19.2385099,6.29221782 19.2363317,6.27315842 19.2292525,6.25464356 L17.6974208,2.11439604 C17.6070248,1.86934653 17.4137079,1.6760297 17.1686584,1.58563366 L13.0284109,0.0538019802 C13.009896,0.0472673267 12.9908366,0.0445445545 12.9717772,0.0390990099 C12.9380149,0.0292970297 12.904797,0.018950495 12.8704901,0.012960396 C12.8421733,0.00805940594 12.814401,0.00697029703 12.7866287,0.00479207921 C12.7572228,0.00261386139 12.7278168,-0.000653465347 12.6984109,-0.000108910891 C12.669005,0.00098019802 12.6412327,0.00479207921 12.6123713,0.0086039604 C12.5835099,0.0118712871 12.5546485,0.0145940594 12.5263317,0.0205841584 C12.499104,0.0265742574 12.4735099,0.0358316832 12.4473713,0.044 C12.4185099,0.0532574257 12.3896485,0.061970297 12.3613317,0.073950495 C12.3357376,0.0853861386 12.3112327,0.0995445545 12.2867277,0.113158416 C12.2611337,0.127316832 12.234995,0.140930693 12.2104901,0.157811881 C12.1832624,0.176326733 12.1582129,0.19919802 12.1331634,0.220980198 C12.1173713,0.235138614 12.099401,0.245485149 12.084698,0.260732673 L5.85771782,6.48771287 C-1.32876733,13.674198 -1.32931188,25.3674158 5.85771782,32.5544455 C5.85771782,32.5544455 5.85771782,32.5544455 5.85826238,32.5549901 C9.33905446,36.0357822 13.9677673,37.9526139 18.8905396,37.9526139 C23.8138564,37.9531584 28.4425693,36.0357822 31.9239059,32.5544455 L33.8058861,30.6724653 C34.1554901,30.3223168 34.1554901,29.7554356 33.8058861,29.4058317" id="Fill-32"></path>
                        <path d="M34.5534505,22.987005 C34.9030545,23.3366089 35.4699356,23.3366089 35.8200842,22.987005 L38.2368168,20.5702723 C38.5864208,20.2201238 38.5864208,19.6532426 38.2368168,19.3036386 C37.8872129,18.9540347 37.3203317,18.9540347 36.9701832,19.3036386 L34.5534505,21.7203713 C34.2038465,22.0705198 34.2038465,22.637401 34.5534505,22.987005" id="Fill-33"></path>
                        <path d="M38.9811139,18.5593416 C39.3307178,18.9089455 39.897599,18.9089455 40.2477475,18.5593416 L41.0863614,17.7207277 C41.4359653,17.3711238 41.4359653,16.803698 41.0863614,16.4540941 C40.7367574,16.1044901 40.1693317,16.1044901 39.8197277,16.4540941 L38.9811139,17.2927079 C38.6315099,17.6428564 38.6315099,18.2097376 38.9811139,18.5593416" id="Fill-34"></path>
                        <path d="M12.7952871,25.6164406 C9.43429703,22.2554505 9.43429703,16.7864901 12.7952871,13.4255 L13.4008317,12.8199554 C13.7509802,12.4703515 13.7509802,11.9034703 13.4008317,11.5533218 C13.0512277,11.2037178 12.4843465,11.2037178 12.134198,11.5533218 L11.5286535,12.1588663 C7.46954455,16.2185198 7.46954455,22.8234208 11.5286535,26.8830743 C15.5883069,30.9421832 22.1932079,30.9427277 26.2528614,26.8830743 L33.9898911,19.1460446 C34.339495,18.795896 34.339495,18.2290149 33.9898911,17.8794109 C33.6402871,17.5292624 33.0734059,17.5292624 32.7232574,17.8794109 L24.9862277,25.6164406 C21.6252376,28.9774307 16.1562772,28.9774307 12.7952871,25.6164406" id="Fill-35"></path>
                    </g>
                </g>
            </g>
        </g>
    </g>
</svg>