<?xml version="1.0" standalone="no"?>
<!DOCTYPE svg PUBLIC "-//W3C//DTD SVG 20010904//EN"
 "http://www.w3.org/TR/2001/REC-SVG-20010904/DTD/svg10.dtd">
<svg version="1.0" xmlns="http://www.w3.org/2000/svg"
 width="600.000000pt" height="600.000000pt" viewBox="0 0 600.000000 600.000000"
 preserveAspectRatio="xMidYMid meet">
<metadata>
Created by potrace 1.11, written by Peter Selinger 2001-2013
</metadata>
<g transform="translate(0.000000,600.000000) scale(0.100000,-0.100000)"
fill="#000000" stroke="none">
<path d="M2044 4298 c-177 -178 -344 -353 -371 -389 -137 -182 -225 -370 -279
-596 -31 -131 -35 -170 -39 -333 -5 -256 43 -483 151 -707 261 -547 814 -896
1419 -896 323 0 654 103 900 279 106 76 117 87 256 222 90 88 139 142 142 160
6 31 -15 77 -38 86 -49 18 -67 7 -200 -123 -163 -159 -276 -244 -420 -315
-218 -108 -393 -150 -630 -150 -185 -1 -300 18 -470 75 -489 167 -870 622
-940 1122 -3 27 -8 59 -11 70 -7 35 -6 237 1 302 28 249 111 462 272 695 42
60 620 650 637 650 6 0 69 -22 140 -49 l129 -48 48 -129 c27 -71 49 -134 49
-139 0 -6 -45 -55 -99 -109 l-99 -98 -74 26 c-133 47 -131 35 -20 146 119 118
122 122 128 155 3 19 -3 33 -24 55 -56 56 -65 50 -346 -232 -251 -252 -293
-298 -357 -393 -218 -318 -265 -771 -119 -1135 163 -408 523 -695 957 -764 99
-16 366 -18 390 -3 5 4 25 9 44 12 91 16 216 58 311 106 140 69 221 135 461
374 130 129 240 243 245 253 19 36 -7 94 -48 107 -37 12 -79 -22 -269 -212
-228 -228 -293 -286 -387 -341 -325 -193 -706 -207 -1039 -40 -312 157 -527
451 -583 798 -13 84 -7 310 11 388 53 223 141 380 314 558 l88 91 135 -49 c74
-27 136 -50 138 -52 3 -3 102 -266 102 -271 0 -1 -33 -35 -73 -76 -133 -135
-185 -241 -194 -399 -24 -403 390 -689 765 -529 82 35 138 84 385 330 226 226
247 251 247 282 0 43 -34 77 -79 77 -30 0 -58 -25 -284 -250 -137 -138 -269
-261 -291 -274 -65 -38 -137 -55 -220 -52 -251 10 -430 268 -350 508 25 77 51
113 159 224 53 54 98 109 101 121 4 15 -16 83 -54 185 l-60 163 129 131 c104
105 129 136 129 159 0 25 -100 313 -137 391 -13 29 -30 37 -207 103 -105 39
-205 71 -222 71 -25 0 -73 -44 -350 -322z"/>
<path d="M2290 3572 c-172 -178 -254 -383 -251 -633 4 -477 392 -868 866 -873
173 -1 278 21 420 90 116 57 184 117 558 491 316 317 357 362 357 390 0 41
-27 71 -69 78 -34 6 -40 1 -395 -352 -198 -197 -363 -360 -366 -363 -28 -28
-99 -75 -156 -103 -113 -57 -180 -72 -334 -71 -125 0 -141 2 -222 30 -319 113
-516 399 -502 731 7 186 76 340 221 495 72 77 81 111 38 153 -44 45 -70 35
-165 -63z"/>
<path d="M3974 3437 c-10 -5 -47 -38 -81 -73 -72 -73 -82 -113 -40 -152 40
-38 78 -29 142 32 79 75 95 101 84 139 -5 17 -12 34 -17 39 -17 17 -68 26 -88
15z"/>
<path d="M4687 3188 c-31 -29 -58 -64 -62 -78 -13 -55 36 -109 87 -97 27 7 96
69 123 110 33 51 -4 117 -66 117 -19 0 -44 -16 -82 -52z"/>
<path d="M4495 2988 c-38 -21 -244 -236 -250 -261 -13 -49 40 -104 89 -91 24
6 224 194 258 243 41 59 -34 143 -97 109z"/>
<path d="M4605 2610 c-11 -5 -90 -78 -174 -164 -143 -144 -155 -158 -155 -192
0 -44 31 -74 77 -74 27 0 54 22 194 163 139 139 163 167 163 193 0 51 -58 92
-105 74z"/>
</g>
</svg>
